999
dxflib 2.2.0.0
  0
SECTION
  2
HEADER
  9
$ACADVER
  1
AC1015
  9
$HANDSEED
  5
FFFF
  9
$DIMASZ
 40
2.5
  9
$PLIMMIN
 10
0.0
 20
0.0
  9
$DIMEXE
 40
1.25
  9
$DIMGAP
 40
0.625
  9
$PLIMMAX
 10
210.0
 20
297.0
  9
$INSUNITS
 70
0
  9
$DIMSTYLE
  2
Standard
  9
$DIMEXO
 40
0.625
  9
$DIMTXT
 40
2.5
  0
ENDSEC
  0
SECTION
  2
TABLES
  0
TABLE
  2
VPORT
  5
8
100
AcDbSymbolTable
 70
1
  0
VPORT
  5
30
100
AcDbSymbolTableRecord
100
AcDbViewportTableRecord
  2
*Active
 70
0
 10
0.0
 20
0.0
 11
1.0
 21
1.0
 12
286.3055555555554861
 22
148.5
 13
0.0
 23
0.0
 14
10.0
 24
10.0
 15
10.0
 25
10.0
 16
0.0
 26
0.0
 36
1.0
 17
0.0
 27
0.0
 37
0.0
 40
297.0
 41
1.92798353909465
 42
50.0
 43
0.0
 44
0.0
 50
0.0
 51
0.0
 71
0
 72
100
 73
1
 74
3
 75
1
 76
1
 77
0
 78
0
281
0
 65
1
110
0.0
120
0.0
130
0.0
111
1.0
121
0.0
131
0.0
112
0.0
122
1.0
132
0.0
 79
0
146
0.0
  0
ENDTAB
  0
TABLE
  2
LTYPE
  5
5
100
AcDbSymbolTable
 70
21
  0
LTYPE
  5
14
100
AcDbSymbolTableRecord
100
AcDbLinetypeTableRecord
  2
ByBlock
 70
0
  3

 72
65
 73
0
 40
0.0
  0
LTYPE
  5
15
100
AcDbSymbolTableRecord
100
AcDbLinetypeTableRecord
  2
ByLayer
 70
0
  3

 72
65
 73
0
 40
0.0
  0
LTYPE
  5
16
100
AcDbSymbolTableRecord
100
AcDbLinetypeTableRecord
  2
CONTINUOUS
 70
0
  3
Solid line
 72
65
 73
0
 40
0.0
  0
LTYPE
  5
31
100
AcDbSymbolTableRecord
100
AcDbLinetypeTableRecord
  2
DOT
 70
0
  3
Dot . . . . . . . . . . . . . . . . . . . . . .
 72
65
 73
2
 40
6.3499999999999996
 49
0.0
 74
0
 49
-6.3499999999999996
 74
0
  0
LTYPE
  5
32
100
AcDbSymbolTableRecord
100
AcDbLinetypeTableRecord
  2
DOT2
 70
0
  3
Dot (.5x) .....................................
 72
65
 73
2
 40
3.1749999999999998
 49
0.0
 74
0
 49
-3.1749999999999998
 74
0
  0
LTYPE
  5
33
100
AcDbSymbolTableRecord
100
AcDbLinetypeTableRecord
  2
DOTX2
 70
0
  3
Dot (2x) .  .  .  .  .  .  .  .  .  .  .  .  .
 72
65
 73
2
 40
12.6999999999999993
 49
0.0
 74
0
 49
-12.6999999999999993
 74
0
  0
LTYPE
  5
34
100
AcDbSymbolTableRecord
100
AcDbLinetypeTableRecord
  2
DASHED
 70
0
  3
Dashed __ __ __ __ __ __ __ __ __ __ __ __ __ _
 72
65
 73
2
 40
19.0500000000000007
 49
12.6999999999999993
 74
0
 49
-6.3499999999999996
 74
0
  0
LTYPE
  5
35
100
AcDbSymbolTableRecord
100
AcDbLinetypeTableRecord
  2
DASHED2
 70
0
  3
Dashed (.5x) _ _ _ _ _ _ _ _ _ _ _ _ _ _ _ _ _
 72
65
 73
2
 40
9.5250000000000004
 49
6.3499999999999996
 74
0
 49
-3.1749999999999998
 74
0
  0
LTYPE
  5
36
100
AcDbSymbolTableRecord
100
AcDbLinetypeTableRecord
  2
DASHEDX2
 70
0
  3
Dashed (2x) ____  ____  ____  ____  ____  ___
 72
65
 73
2
 40
38.1000000000000014
 49
25.3999999999999986
 74
0
 49
-12.6999999999999993
 74
0
  0
LTYPE
  5
37
100
AcDbSymbolTableRecord
100
AcDbLinetypeTableRecord
  2
DASHDOT
 70
0
  3
Dash dot __ . __ . __ . __ . __ . __ . __ . __
 72
65
 73
4
 40
25.3999999999999986
 49
12.6999999999999993
 74
0
 49
-6.3499999999999996
 74
0
 49
0.0
 74
0
 49
-6.3499999999999996
 74
0
  0
LTYPE
  5
38
100
AcDbSymbolTableRecord
100
AcDbLinetypeTableRecord
  2
DASHDOT2
 70
0
  3
Dash dot (.5x) _._._._._._._._._._._._._._._.
 72
65
 73
4
 40
12.6999999999999993
 49
6.3499999999999996
 74
0
 49
-3.1749999999999998
 74
0
 49
0.0
 74
0
 49
-3.1749999999999998
 74
0
  0
LTYPE
  5
39
100
AcDbSymbolTableRecord
100
AcDbLinetypeTableRecord
  2
DASHDOTX2
 70
0
  3
Dash dot (2x) ____  .  ____  .  ____  .  ___
 72
65
 73
4
 40
50.7999999999999972
 49
25.3999999999999986
 74
0
 49
-12.6999999999999993
 74
0
 49
0.0
 74
0
 49
-12.6999999999999993
 74
0
  0
LTYPE
  5
3A
100
AcDbSymbolTableRecord
100
AcDbLinetypeTableRecord
  2
DIVIDE
 70
0
  3
Divide ____ . . ____ . . ____ . . ____ . . ____
 72
65
 73
6
 40
31.75
 49
12.6999999999999993
 74
0
 49
-6.3499999999999996
 74
0
 49
0.0
 74
0
 49
-6.3499999999999996
 74
0
 49
0.0
 74
0
 49
-6.3499999999999996
 74
0
  0
LTYPE
  5
3B
100
AcDbSymbolTableRecord
100
AcDbLinetypeTableRecord
  2
DIVIDE2
 70
0
  3
Divide (.5x) __..__..__..__..__..__..__..__.._
 72
65
 73
6
 40
15.875
 49
6.3499999999999996
 74
0
 49
-3.1749999999999998
 74
0
 49
0.0
 74
0
 49
-3.1749999999999998
 74
0
 49
0.0
 74
0
 49
-3.1749999999999998
 74
0
  0
LTYPE
  5
3C
100
AcDbSymbolTableRecord
100
AcDbLinetypeTableRecord
  2
DIVIDEX2
 70
0
  3
Divide (2x) ________  .  .  ________  .  .  _
 72
65
 73
6
 40
63.5
 49
25.3999999999999986
 74
0
 49
-12.6999999999999993
 74
0
 49
0.0
 74
0
 49
-12.6999999999999993
 74
0
 49
0.0
 74
0
 49
-12.6999999999999993
 74
0
  0
LTYPE
  5
3D
100
AcDbSymbolTableRecord
100
AcDbLinetypeTableRecord
  2
CENTER
 70
0
  3
Center ____ _ ____ _ ____ _ ____ _ ____ _ ____
 72
65
 73
4
 40
50.7999999999999972
 49
31.75
 74
0
 49
-6.3499999999999996
 74
0
 49
6.3499999999999996
 74
0
 49
-6.3499999999999996
 74
0
  0
LTYPE
  5
3E
100
AcDbSymbolTableRecord
100
AcDbLinetypeTableRecord
  2
CENTER2
 70
0
  3
Center (.5x) ___ _ ___ _ ___ _ ___ _ ___ _ ___
 72
65
 73
4
 40
28.5749999999999993
 49
19.0500000000000007
 74
0
 49
-3.1749999999999998
 74
0
 49
3.1749999999999998
 74
0
 49
-3.1749999999999998
 74
0
  0
LTYPE
  5
3F
100
AcDbSymbolTableRecord
100
AcDbLinetypeTableRecord
  2
CENTERX2
 70
0
  3
Center (2x) ________  __  ________  __  _____
 72
65
 73
4
 40
101.5999999999999943
 49
63.5
 74
0
 49
-12.6999999999999993
 74
0
 49
12.6999999999999993
 74
0
 49
-12.6999999999999993
 74
0
  0
LTYPE
  5
40
100
AcDbSymbolTableRecord
100
AcDbLinetypeTableRecord
  2
BORDER
 70
0
  3
Border __ __ . __ __ . __ __ . __ __ . __ __ .
 72
65
 73
6
 40
44.4500000000000028
 49
12.6999999999999993
 74
0
 49
-6.3499999999999996
 74
0
 49
12.6999999999999993
 74
0
 49
-6.3499999999999996
 74
0
 49
0.0
 74
0
 49
-6.3499999999999996
 74
0
  0
LTYPE
  5
41
100
AcDbSymbolTableRecord
100
AcDbLinetypeTableRecord
  2
BORDER2
 70
0
  3
Border (.5x) __.__.__.__.__.__.__.__.__.__.__.
 72
65
 73
6
 40
22.2250000000000014
 49
6.3499999999999996
 74
0
 49
-3.1749999999999998
 74
0
 49
6.3499999999999996
 74
0
 49
-3.1749999999999998
 74
0
 49
0.0
 74
0
 49
-3.1749999999999998
 74
0
  0
LTYPE
  5
42
100
AcDbSymbolTableRecord
100
AcDbLinetypeTableRecord
  2
BORDERX2
 70
0
  3
Border (2x) ____  ____  .  ____  ____  .  ___
 72
65
 73
6
 40
88.9000000000000057
 49
25.3999999999999986
 74
0
 49
-12.6999999999999993
 74
0
 49
25.3999999999999986
 74
0
 49
-12.6999999999999993
 74
0
 49
0.0
 74
0
 49
-12.6999999999999993
 74
0
  0
ENDTAB
  0
TABLE
  2
LAYER
  5
2
100
AcDbSymbolTable
 70
1
  0
LAYER
  5
10
100
AcDbSymbolTableRecord
100
AcDbLayerTableRecord
  2
0
 70
0
 62
7
  6
CONTINUOUS
370
0
390
F
  0
ENDTAB
  0
TABLE
  2
STYLE
  5
3
100
AcDbSymbolTable
 70
1
  0
STYLE
  5
11
100
AcDbSymbolTableRecord
100
AcDbTextStyleTableRecord
  2
Standard
 70
0
 40
0.0
 41
0.75
 50
0.0
 71
0
 42
2.5
  3
txt
  4

  0
ENDTAB
  0
TABLE
  2
VIEW
  5
6
100
AcDbSymbolTable
 70
0
  0
ENDTAB
  0
TABLE
  2
UCS
  5
7
100
AcDbSymbolTable
 70
0
  0
ENDTAB
  0
TABLE
  2
APPID
  5
9
100
AcDbSymbolTable
 70
1
  0
APPID
  5
12
100
AcDbSymbolTableRecord
100
AcDbRegAppTableRecord
  2
ACAD
 70
0
  0
ENDTAB
  0
TABLE
  2
DIMSTYLE
  5
A
100
AcDbSymbolTable
 70
1
100
AcDbDimStyleTable
 71
0
  0
DIMSTYLE
105
27
100
AcDbSymbolTableRecord
100
AcDbDimStyleTableRecord
  2
Standard
 41
2.5
 42
0.625
 43
3.75
 44
1.25
 70
0
 73
0
 74
0
 77
1
 78
8
140
2.5
141
2.5
143
0.03937007874016
147
0.625
171
3
172
1
271
2
272
2
274
3
278
44
283
0
284
8
340
11
  0
ENDTAB
  0
TABLE
  2
BLOCK_RECORD
  5
1
100
AcDbSymbolTable
 70
1
  0
BLOCK_RECORD
  5
1F
100
AcDbSymbolTableRecord
100
AcDbBlockTableRecord
  2
*Model_Space
340
22
  0
BLOCK_RECORD
  5
1B
100
AcDbSymbolTableRecord
100
AcDbBlockTableRecord
  2
*Paper_Space
340
1E
  0
BLOCK_RECORD
  5
23
100
AcDbSymbolTableRecord
100
AcDbBlockTableRecord
  2
*Paper_Space0
340
26
  0
ENDTAB
  0
ENDSEC
  0
SECTION
  2
BLOCKS
  0
BLOCK
  5
20
100
AcDbEntity
  8
0
100
AcDbBlockBegin
  2
*Model_Space
 70
0
 10
0.0
 20
0.0
 30
0.0
  3
*Model_Space
  1

  0
ENDBLK
  5
21
100
AcDbEntity
  8
0
100
AcDbBlockEnd
  0
BLOCK
  5
1C
100
AcDbEntity
 67
1
  8
0
100
AcDbBlockBegin
  2
*Paper_Space
 70
0
 10
0.0
 20
0.0
 30
0.0
  3
*Paper_Space
  1

  0
ENDBLK
  5
1D
100
AcDbEntity
 67
1
  8
0
100
AcDbBlockEnd
  0
BLOCK
  5
24
100
AcDbEntity
  8
0
100
AcDbBlockBegin
  2
*Paper_Space0
 70
0
 10
0.0
 20
0.0
 30
0.0
  3
*Paper_Space0
  1

  0
ENDBLK
  5
25
100
AcDbEntity
  8
0
100
AcDbBlockEnd
  0
ENDSEC
  0
SECTION
  2
ENTITIES
  0
LINE
  5
43
100
AcDbEntity
100
AcDbLine
  8
0
 62
256
370
18
  6
ByLayer
 10
10.0
 20
-0.5
 30
0.0
 11
202.5000000000001421
 21
-0.5000000000000003
 31
0.0
  0
ARC
  5
44
100
AcDbEntity
  8
0
 62
256
370
18
  6
ByLayer
100
AcDbCircle
 10
202.8726616366589042
 20
2.768189176570238
 30
0.0
 40
3.2723504208825442
100
AcDbArc
 50
263.6027375118551959
 51
91.2200294406447512
  0
ARC
  5
45
100
AcDbEntity
  8
0
 62
256
370
18
  6
ByLayer
100
AcDbCircle
 10
38.8800000000020916
 20
30.566352732645683
 30
0.0
 40
28.6340942903988278
100
AcDbArc
 50
358.3401832089774643
 51
90.320155837123707
  0
ARC
  5
46
100
AcDbEntity
  8
0
 62
256
370
18
  6
ByLayer
100
AcDbCircle
 10
8.5508133121280121
 20
29.3285033366725578
 30
0.0
 40
29.8861022638380263
100
AcDbArc
 50
87.5461057358767363
 51
274.5990130882807421
  0
LINE
  5
47
100
AcDbEntity
100
AcDbLine
  8
0
 62
256
370
18
  6
ByLayer
 10
190.1194117120124929
 20
6.2075699200004077
 30
0.0
 11
202.990891827213602
 21
6.066641305600406
 31
0.0
  0
ARC
  5
48
100
AcDbEntity
  8
0
 62
256
370
18
  6
ByLayer
100
AcDbCircle
 10
200.6480164145568779
 20
35.7277276629162301
 30
0.0
 40
31.3857975603018424
100
AcDbArc
 50
132.0720866985771522
 51
250.4006484782717337
  0
ARC
  5
49
100
AcDbEntity
  8
0
 62
256
370
18
  6
ByLayer
100
AcDbCircle
 10
157.6530688616869611
 20
36.5623515377801667
 30
0.0
 40
32.3705950237340545
100
AcDbArc
 50
290.8316371627912531
 51
43.8199499827168992
  0
ARC
  5
4A
100
AcDbEntity
  8
0
 62
256
370
18
  6
ByLayer
100
AcDbCircle
 10
180.2875550168921279
 20
58.2831772272642894
 30
0.0
 40
1.0
100
AcDbArc
 50
43.8199499827170627
 51
132.0720866985762711
  0
ARC
  5
4B
100
AcDbEntity
  8
0
 62
256
370
18
  6
ByLayer
100
AcDbCircle
 10
139.9903016574610319
 20
58.5831616818215579
 30
0.0
 40
1.0
100
AcDbArc
 50
44.821368066011182
 51
135.6674843093758795
  0
ARC
  5
4C
100
AcDbEntity
  8
0
 62
256
370
18
  6
ByLayer
100
AcDbCircle
 10
99.7332441293252145
 20
58.7809209312650438
 30
0.0
 40
1.0
100
AcDbArc
 50
44.8473783439921547
 51
136.6674105208354604
  0
ARC
  5
4D
100
AcDbEntity
  8
0
 62
256
370
18
  6
ByLayer
100
AcDbCircle
 10
10.5976234269084664
 20
29.7964459013250931
 30
0.0
 40
29.3459702245353995
100
AcDbArc
 50
312.2977894538955752
 51
91.1981404879065991
  0
ARC
  5
4E
100
AcDbEntity
  8
0
 62
256
370
18
  6
ByLayer
100
AcDbCircle
 10
29.6740072026363322
 20
8.8301488984827863
 30
0.0
 40
1.0
100
AcDbArc
 50
225.2928023712873369
 51
312.2977894538951205
  0
ARC
  5
4F
100
AcDbEntity
  8
0
 62
256
370
18
  6
ByLayer
100
AcDbCircle
 10
50.9038878856086399
 20
30.4830403963427301
 30
0.0
 40
31.2959377534894436
100
AcDbArc
 50
112.9995030515850232
 51
226.312870170660176
  0
ARC
  5
50
100
AcDbEntity
  8
0
 62
256
370
18
  6
ByLayer
100
AcDbCircle
 10
77.3486814315676554
 20
36.515295471701414
 30
0.0
 40
32.5725628398362304
100
AcDbArc
 50
292.9397267258403872
 51
44.8473783439922684
  0
ARC
  5
51
100
AcDbEntity
  8
0
 62
256
370
18
  6
ByLayer
100
AcDbCircle
 10
91.4698752548370777
 20
30.260077318774723
 30
0.0
 40
23.8925348155240656
100
AcDbArc
 50
181.3528180684108975
 51
265.4516376920220182
  0
ARC
  5
52
100
AcDbEntity
  8
0
 62
256
370
18
  6
ByLayer
100
AcDbCircle
 10
89.6544847179860369
 20
7.4396367560096586
 30
0.0
 40
1.0
100
AcDbArc
 50
265.4516376920213361
 51
292.9397267258402167
  0
ARC
  5
53
100
AcDbEntity
  8
0
 62
256
370
18
  6
ByLayer
100
AcDbCircle
 10
123.0942722481531177
 20
36.7415008554450182
 30
0.0
 40
33.1165638268966589
100
AcDbArc
 50
136.6674105208356877
 51
245.9696179667339209
  0
ARC
  5
54
100
AcDbEntity
  8
0
 62
256
370
18
  6
ByLayer
100
AcDbCircle
 10
110.0157327391092821
 20
7.4084908435572778
 30
0.0
 40
1.0
100
AcDbArc
 50
245.9696179667342903
 51
269.8115277208700604
  0
ARC
  5
55
100
AcDbEntity
  8
0
 62
256
370
18
  6
ByLayer
100
AcDbCircle
 10
117.6117579144259508
 20
36.3437245554526882
 30
0.0
 40
32.5498301700127826
100
AcDbArc
 50
293.1883727201740726
 51
44.8213680660110185
  0
LINE
  5
56
100
AcDbEntity
100
AcDbLine
  8
0
 62
256
370
18
  6
ByLayer
 10
110.0124432832220265
 20
6.4084962538319301
 30
0.0
 11
130.0313837433789672
 21
6.3426444760024658
 31
0.0
  0
ARC
  5
57
100
AcDbEntity
  8
0
 62
256
370
18
  6
ByLayer
100
AcDbCircle
 10
130.0346731992662228
 20
7.3426390657278136
 30
0.0
 40
1.0
100
AcDbArc
 50
269.8115277208700604
 51
293.1883727201738452
  0
ARC
  5
58
100
AcDbEntity
  8
0
 62
256
370
18
  6
ByLayer
100
AcDbCircle
 10
162.6865711196384723
 20
36.4096399132857798
 30
0.0
 40
32.7298867807544838
100
AcDbArc
 50
135.6674843093760785
 51
246.7800824061189076
  0
LINE
  5
59
100
AcDbEntity
100
AcDbLine
  8
0
 62
256
370
18
  6
ByLayer
 10
150.1788848544547363
 20
6.2499290600319339
 30
0.0
 11
169.1982233600108145
 21
6.2914560000004025
 31
0.0
  0
ARC
  5
5A
100
AcDbEntity
  8
0
 62
256
370
18
  6
ByLayer
100
AcDbCircle
 10
150.1767014535456042
 20
7.249926676409328
 30
0.0
 40
1.0
100
AcDbArc
 50
246.7800824061190497
 51
270.1250997564751515
  0
LWPOLYLINE
  5
5B
  8
0
 62
256
370
18
  6
ByLayer
100
AcDbEntity
100
AcDbPolyline
 90
45
 70
0
 10
38.5291583559983408
 20
59.1795763994906991
 10
38.5338881814778418
 20
59.1795763994906991
 10
38.5386180069573356
 20
59.1795763994906991
 10
38.5433478324368366
 20
59.1795763994906991
 10
38.5480776579163376
 20
59.1795763994906991
 10
38.5528074833958314
 20
59.1795763994906991
 10
38.5575373088753324
 20
59.1795763994906991
 10
38.5575373088753324
 20
59.1843062249702001
 10
38.5669969598343343
 20
59.1843062249702001
 10
38.5717267853138281
 20
59.1843062249702001
 10
38.5764566107933291
 20
59.1843062249702001
 10
38.5811864362728301
 20
59.1843062249702001
 10
38.5859162617523239
 20
59.1843062249702001
 10
38.5906460872318249
 20
59.1843062249702001
 10
38.5906460872318249
 20
59.189036050449694
 10
38.5953759127113258
 20
59.189036050449694
 10
38.6001057381908268
 20
59.189036050449694
 10
38.6048355636703207
 20
59.189036050449694
 10
38.6095653891498216
 20
59.189036050449694
 10
38.6142952146293226
 20
59.189036050449694
 10
38.6190250401088164
 20
59.189036050449694
 10
38.6237548655883174
 20
59.189036050449694
 10
38.6284846910678183
 20
59.189036050449694
 10
38.6332145165473193
 20
59.189036050449694
 10
38.6379443420268132
 20
59.189036050449694
 10
38.6379443420268132
 20
59.1843062249702001
 10
38.6474039929858151
 20
59.1843062249702001
 10
38.6521338184653089
 20
59.1843062249702001
 10
38.6568636439448099
 20
59.1843062249702001
 10
38.6615934694243109
 20
59.1843062249702001
 10
38.6663232949038118
 20
59.1843062249702001
 10
38.6663232949038118
 20
59.1795763994906991
 10
38.6710531203833057
 20
59.1795763994906991
 10
38.6757829458628066
 20
59.1795763994906991
 10
38.6852425968218014
 20
59.1795763994906991
 10
38.6899724223013024
 20
59.1795763994906991
 10
38.6947022477808034
 20
59.1795763994906991
 10
38.6994320732603043
 20
59.1795763994906991
 10
38.7041618987397982
 20
59.1795763994906991
 10
38.7088917242192991
 20
59.1795763994906991
 10
38.7136215496988001
 20
59.1795763994906991
 10
38.7230812006577949
 20
59.1795763994906991
 10
38.7278110261372959
 20
59.1795763994906991
 10
38.7278110261372959
 20
59.1843062249702001
 10
38.7325408516167968
 20
59.1843062249702001
  0
LWPOLYLINE
  5
5C
  8
0
 62
256
370
18
  6
ByLayer
100
AcDbEntity
100
AcDbPolyline
 90
85
 70
0
 10
38.6568636439448099
 20
59.2978220364781734
 10
38.6615934694243109
 20
59.2978220364781734
 10
38.6663232949038118
 20
59.2978220364781734
 10
38.6710531203833057
 20
59.2978220364781734
 10
38.6710531203833057
 20
59.2930922109986724
 10
38.6757829458628066
 20
59.2930922109986724
 10
38.6805127713423076
 20
59.2930922109986724
 10
38.6805127713423076
 20
59.2883623855191715
 10
38.6852425968218014
 20
59.2883623855191715
 10
38.6899724223013024
 20
59.2883623855191715
 10
38.6899724223013024
 20
59.2836325600396776
 10
38.6947022477808034
 20
59.2836325600396776
 10
38.6994320732603043
 20
59.2836325600396776
 10
38.6994320732603043
 20
59.2789027345601767
 10
38.7041618987397982
 20
59.2789027345601767
 10
38.7088917242192991
 20
59.2789027345601767
 10
38.7136215496988001
 20
59.2789027345601767
 10
38.7183513751783011
 20
59.2789027345601767
 10
38.7230812006577949
 20
59.2789027345601767
 10
38.7278110261372959
 20
59.2789027345601767
 10
38.7325408516167968
 20
59.2789027345601767
 10
38.7372706770962907
 20
59.2789027345601767
 10
38.7420005025757916
 20
59.2789027345601767
 10
38.7467303280552926
 20
59.2789027345601767
 10
38.7514601535347936
 20
59.2789027345601767
 10
38.7514601535347936
 20
59.2741729090806757
 10
38.7561899790142874
 20
59.2741729090806757
 10
38.7609198044937884
 20
59.2741729090806757
 10
38.7656496299732893
 20
59.2741729090806757
 10
38.7703794554527832
 20
59.2741729090806757
 10
38.7751092809322842
 20
59.2741729090806757
 10
38.7751092809322842
 20
59.2694430836011819
 10
38.7845689318912861
 20
59.2694430836011819
 10
38.7892987573707799
 20
59.2694430836011819
 10
38.7940285828502809
 20
59.2694430836011819
 10
38.7987584083297818
 20
59.2647132581216809
 10
38.8082180592887767
 20
59.2647132581216809
 10
38.8129478847682776
 20
59.2599834326421799
 10
38.8176777102477786
 20
59.2599834326421799
 10
38.8176777102477786
 20
59.255253607162679
 10
38.8224075357272724
 20
59.255253607162679
 10
38.8271373612067734
 20
59.255253607162679
 10
38.8271373612067734
 20
59.2505237816831851
 10
38.8318671866862744
 20
59.2505237816831851
 10
38.8413268376452692
 20
59.2457939562036842
 10
38.8460566631247701
 20
59.2457939562036842
 10
38.8507864886042711
 20
59.2457939562036842
 10
38.8555163140837649
 20
59.2410641307241832
 10
38.8602461395632659
 20
59.2410641307241832
 10
38.8697057905222607
 20
59.2363343052446893
 10
38.8744356160017617
 20
59.2316044797651884
 10
38.8838952669607636
 20
59.2316044797651884
 10
38.8886250924402574
 20
59.2316044797651884
 10
38.8933549179197584
 20
59.2268746542856874
 10
38.8980847433992594
 20
59.2268746542856874
 10
38.9028145688787532
 20
59.2268746542856874
 10
38.9075443943582542
 20
59.2268746542856874
 10
38.9122742198377551
 20
59.2268746542856874
 10
38.9170040453172561
 20
59.2268746542856874
 10
38.9170040453172561
 20
59.2221448288061865
 10
38.92173387079675
 20
59.2221448288061865
 10
38.9264636962762509
 20
59.2221448288061865
 10
38.9311935217557519
 20
59.2221448288061865
 10
38.9359233472352457
 20
59.2221448288061865
 10
38.9406531727147467
 20
59.2221448288061865
 10
38.9453829981942476
 20
59.2221448288061865
 10
38.9501128236737486
 20
59.2174150033266926
 10
38.9548426491532425
 20
59.2174150033266926
 10
38.9595724746327434
 20
59.2174150033266926
 10
38.9643023001122444
 20
59.2174150033266926
 10
38.9690321255917382
 20
59.2126851778471917
 10
38.9832216020302411
 20
59.2126851778471917
 10
38.9926812529892359
 20
59.2126851778471917
 10
38.9974110784687369
 20
59.2079553523676907
 10
39.0021409039482307
 20
59.2079553523676907
 10
39.0068707294277317
 20
59.2079553523676907
 10
39.0116005549072327
 20
59.2079553523676907
 10
39.0163303803867336
 20
59.2079553523676907
 10
39.0210602058662275
 20
59.2079553523676907
 10
39.0257900313457284
 20
59.2079553523676907
 10
39.0305198568252294
 20
59.2079553523676907
 10
39.0352496823047233
 20
59.2079553523676907
 10
39.0399795077842242
 20
59.2079553523676907
 10
39.0447093332637252
 20
59.2079553523676907
 10
39.0447093332637252
 20
59.2032255268881968
  0
MTEXT
  5
5D
100
AcDbEntity
100
AcDbMText
  8
0
 62
256
370
25
  6
ByLayer
 10
27.558093714142327
 20
66.2066397766590029
 30
0.0
 40
5.0
 41
100.0
 71
5
 72
2
  1
+1
  7
iso
 50
0.0
 73
0
 44
1.0
  0
MTEXT
  5
5E
100
AcDbEntity
100
AcDbMText
  8
0
 62
256
370
25
  6
ByLayer
 10
98.6176465789991568
 20
25.8105072834894216
 30
0.0
 40
5.0
 41
100.0
 71
5
 72
2
  1
-1
  7
iso
 50
0.0
 73
0
 44
1.0
  0
MTEXT
  5
5F
100
AcDbEntity
100
AcDbMText
  8
0
 62
256
370
25
  6
ByLayer
 10
139.2691955504949988
 20
25.380332162097929
 30
0.0
 40
5.0
 41
100.0
 71
5
 72
2
  1
-1
  7
iso
 50
0.0
 73
0
 44
1.0
  0
MTEXT
  5
60
100
AcDbEntity
100
AcDbMText
  8
0
 62
256
370
25
  6
ByLayer
 10
179.0603942792078556
 20
25.1652446014021862
 30
0.0
 40
5.0
 41
100.0
 71
5
 72
2
  1
-1
  7
iso
 50
0.0
 73
0
 44
1.0
  0
ENDSEC
  0
SECTION
  2
OBJECTS
  0
DICTIONARY
  5
C
100
AcDbDictionary
280
0
281
1
  3
ACAD_GROUP
350
D
  3
ACAD_LAYOUT
350
1A
  3
ACAD_MLINESTYLE
350
17
  3
ACAD_PLOTSETTINGS
350
19
  3
ACAD_PLOTSTYLENAME
350
E
  3
AcDbVariableDictionary
350
61
  0
DICTIONARY
  5
D
100
AcDbDictionary
280
0
281
1
  0
ACDBDICTIONARYWDFLT
  5
E
100
AcDbDictionary
281
1
  3
Normal
350
F
100
AcDbDictionaryWithDefault
340
F
  0
ACDBPLACEHOLDER
  5
F
  0
DICTIONARY
  5
17
100
AcDbDictionary
280
0
281
1
  3
Standard
350
18
  0
MLINESTYLE
  5
18
100
AcDbMlineStyle
  2
STANDARD
 70
0
  3

 62
256
 51
90.0
 52
90.0
 71
2
 49
0.5
 62
256
  6
BYLAYER
 49
-0.5
 62
256
  6
BYLAYER
  0
DICTIONARY
  5
19
100
AcDbDictionary
280
0
281
1
  0
DICTIONARY
  5
1A
100
AcDbDictionary
281
1
  3
Layout1
350
1E
  3
Layout2
350
26
  3
Model
350
22
  0
LAYOUT
  5
1E
100
AcDbPlotSettings
  1

  2
C:\Program Files\AutoCAD 2002\plotters\DWF ePlot (optimized for plotting).pc3
  4

  6

 40
0.0
 41
0.0
 42
0.0
 43
0.0
 44
0.0
 45
0.0
 46
0.0
 47
0.0
 48
0.0
 49
0.0
140
0.0
141
0.0
142
1.0
143
1.0
 70
688
 72
0
 73
0
 74
5
  7

 75
16
147
1.0
148
0.0
149
0.0
100
AcDbLayout
  1
Layout1
 70
1
 71
1
 10
0.0
 20
0.0
 11
420.0
 21
297.0
 12
0.0
 22
0.0
 32
0.0
 14
100000000000000000000.0
 24
100000000000000000000.0
 34
100000000000000000000.0
 15
-100000000000000000000.0
 25
-100000000000000000000.0
 35
-100000000000000000000.0
146
0.0
 13
0.0
 23
0.0
 33
0.0
 16
1.0
 26
0.0
 36
0.0
 17
0.0
 27
1.0
 37
0.0
 76
0
330
1B
  0
LAYOUT
  5
22
100
AcDbPlotSettings
  1

  2
C:\Program Files\AutoCAD 2002\plotters\DWF ePlot (optimized for plotting).pc3
  4

  6

 40
0.0
 41
0.0
 42
0.0
 43
0.0
 44
0.0
 45
0.0
 46
0.0
 47
0.0
 48
0.0
 49
0.0
140
0.0
141
0.0
142
1.0
143
1.0
 70
1712
 72
0
 73
0
 74
0
  7

 75
0
147
1.0
148
0.0
149
0.0
100
AcDbLayout
  1
Model
 70
1
 71
0
 10
0.0
 20
0.0
 11
12.0
 21
9.0
 12
0.0
 22
0.0
 32
0.0
 14
0.0
 24
0.0
 34
0.0
 15
0.0
 25
0.0
 35
0.0
146
0.0
 13
0.0
 23
0.0
 33
0.0
 16
1.0
 26
0.0
 36
0.0
 17
0.0
 27
1.0
 37
0.0
 76
0
330
1F
  0
LAYOUT
  5
26
100
AcDbPlotSettings
  1

  2
C:\Program Files\AutoCAD 2002\plotters\DWF ePlot (optimized for plotting).pc3
  4

  6

 40
0.0
 41
0.0
 42
0.0
 43
0.0
 44
0.0
 45
0.0
 46
0.0
 47
0.0
 48
0.0
 49
0.0
140
0.0
141
0.0
142
1.0
143
1.0
 70
688
 72
0
 73
0
 74
5
  7

 75
16
147
1.0
148
0.0
149
0.0
100
AcDbLayout
  1
Layout2
 70
1
 71
2
 10
0.0
 20
0.0
 11
12.0
 21
9.0
 12
0.0
 22
0.0
 32
0.0
 14
0.0
 24
0.0
 34
0.0
 15
0.0
 25
0.0
 35
0.0
146
0.0
 13
0.0
 23
0.0
 33
0.0
 16
1.0
 26
0.0
 36
0.0
 17
0.0
 27
1.0
 37
0.0
 76
0
330
23
  0
DICTIONARY
  5
61
100
AcDbDictionary
281
1
  3
DIMASSOC
350
63
  3
HIDETEXT
350
62
  0
DICTIONARYVAR
  5
62
100
DictionaryVariables
280
0
  1
2
  0
DICTIONARYVAR
  5
63
100
DictionaryVariables
280
0
  1
1
  0
ENDSEC
  0
EOF
