999
dxflib 2.2.0.0
  0
SECTION
  2
HEADER
  9
$ACADVER
  1
AC1015
  9
$HANDSEED
  5
FFFF
  9
$DIMASZ
 40
2.5
  9
$PLIMMIN
 10
0.0
 20
0.0
  9
$DIMEXE
 40
1.25
  9
$DIMGAP
 40
0.625
  9
$PLIMMAX
 10
210.0
 20
297.0
  9
$INSUNITS
 70
0
  9
$DIMSTYLE
  2
Standard
  9
$DIMEXO
 40
0.625
  9
$DIMTXT
 40
2.5
  0
ENDSEC
  0
SECTION
  2
TABLES
  0
TABLE
  2
VPORT
  5
8
100
AcDbSymbolTable
 70
1
  0
VPORT
  5
30
100
AcDbSymbolTableRecord
100
AcDbViewportTableRecord
  2
*Active
 70
0
 10
0.0
 20
0.0
 11
1.0
 21
1.0
 12
286.3055555555554861
 22
148.5
 13
0.0
 23
0.0
 14
10.0
 24
10.0
 15
10.0
 25
10.0
 16
0.0
 26
0.0
 36
1.0
 17
0.0
 27
0.0
 37
0.0
 40
297.0
 41
1.92798353909465
 42
50.0
 43
0.0
 44
0.0
 50
0.0
 51
0.0
 71
0
 72
100
 73
1
 74
3
 75
1
 76
1
 77
0
 78
0
281
0
 65
1
110
0.0
120
0.0
130
0.0
111
1.0
121
0.0
131
0.0
112
0.0
122
1.0
132
0.0
 79
0
146
0.0
  0
ENDTAB
  0
TABLE
  2
LTYPE
  5
5
100
AcDbSymbolTable
 70
21
  0
LTYPE
  5
14
100
AcDbSymbolTableRecord
100
AcDbLinetypeTableRecord
  2
ByBlock
 70
0
  3

 72
65
 73
0
 40
0.0
  0
LTYPE
  5
15
100
AcDbSymbolTableRecord
100
AcDbLinetypeTableRecord
  2
ByLayer
 70
0
  3

 72
65
 73
0
 40
0.0
  0
LTYPE
  5
16
100
AcDbSymbolTableRecord
100
AcDbLinetypeTableRecord
  2
CONTINUOUS
 70
0
  3
Solid line
 72
65
 73
0
 40
0.0
  0
LTYPE
  5
31
100
AcDbSymbolTableRecord
100
AcDbLinetypeTableRecord
  2
DOT
 70
0
  3
Dot . . . . . . . . . . . . . . . . . . . . . .
 72
65
 73
2
 40
6.3499999999999996
 49
0.0
 74
0
 49
-6.3499999999999996
 74
0
  0
LTYPE
  5
32
100
AcDbSymbolTableRecord
100
AcDbLinetypeTableRecord
  2
DOT2
 70
0
  3
Dot (.5x) .....................................
 72
65
 73
2
 40
3.1749999999999998
 49
0.0
 74
0
 49
-3.1749999999999998
 74
0
  0
LTYPE
  5
33
100
AcDbSymbolTableRecord
100
AcDbLinetypeTableRecord
  2
DOTX2
 70
0
  3
Dot (2x) .  .  .  .  .  .  .  .  .  .  .  .  .
 72
65
 73
2
 40
12.6999999999999993
 49
0.0
 74
0
 49
-12.6999999999999993
 74
0
  0
LTYPE
  5
34
100
AcDbSymbolTableRecord
100
AcDbLinetypeTableRecord
  2
DASHED
 70
0
  3
Dashed __ __ __ __ __ __ __ __ __ __ __ __ __ _
 72
65
 73
2
 40
19.0500000000000007
 49
12.6999999999999993
 74
0
 49
-6.3499999999999996
 74
0
  0
LTYPE
  5
35
100
AcDbSymbolTableRecord
100
AcDbLinetypeTableRecord
  2
DASHED2
 70
0
  3
Dashed (.5x) _ _ _ _ _ _ _ _ _ _ _ _ _ _ _ _ _
 72
65
 73
2
 40
9.5250000000000004
 49
6.3499999999999996
 74
0
 49
-3.1749999999999998
 74
0
  0
LTYPE
  5
36
100
AcDbSymbolTableRecord
100
AcDbLinetypeTableRecord
  2
DASHEDX2
 70
0
  3
Dashed (2x) ____  ____  ____  ____  ____  ___
 72
65
 73
2
 40
38.1000000000000014
 49
25.3999999999999986
 74
0
 49
-12.6999999999999993
 74
0
  0
LTYPE
  5
37
100
AcDbSymbolTableRecord
100
AcDbLinetypeTableRecord
  2
DASHDOT
 70
0
  3
Dash dot __ . __ . __ . __ . __ . __ . __ . __
 72
65
 73
4
 40
25.3999999999999986
 49
12.6999999999999993
 74
0
 49
-6.3499999999999996
 74
0
 49
0.0
 74
0
 49
-6.3499999999999996
 74
0
  0
LTYPE
  5
38
100
AcDbSymbolTableRecord
100
AcDbLinetypeTableRecord
  2
DASHDOT2
 70
0
  3
Dash dot (.5x) _._._._._._._._._._._._._._._.
 72
65
 73
4
 40
12.6999999999999993
 49
6.3499999999999996
 74
0
 49
-3.1749999999999998
 74
0
 49
0.0
 74
0
 49
-3.1749999999999998
 74
0
  0
LTYPE
  5
39
100
AcDbSymbolTableRecord
100
AcDbLinetypeTableRecord
  2
DASHDOTX2
 70
0
  3
Dash dot (2x) ____  .  ____  .  ____  .  ___
 72
65
 73
4
 40
50.7999999999999972
 49
25.3999999999999986
 74
0
 49
-12.6999999999999993
 74
0
 49
0.0
 74
0
 49
-12.6999999999999993
 74
0
  0
LTYPE
  5
3A
100
AcDbSymbolTableRecord
100
AcDbLinetypeTableRecord
  2
DIVIDE
 70
0
  3
Divide ____ . . ____ . . ____ . . ____ . . ____
 72
65
 73
6
 40
31.75
 49
12.6999999999999993
 74
0
 49
-6.3499999999999996
 74
0
 49
0.0
 74
0
 49
-6.3499999999999996
 74
0
 49
0.0
 74
0
 49
-6.3499999999999996
 74
0
  0
LTYPE
  5
3B
100
AcDbSymbolTableRecord
100
AcDbLinetypeTableRecord
  2
DIVIDE2
 70
0
  3
Divide (.5x) __..__..__..__..__..__..__..__.._
 72
65
 73
6
 40
15.875
 49
6.3499999999999996
 74
0
 49
-3.1749999999999998
 74
0
 49
0.0
 74
0
 49
-3.1749999999999998
 74
0
 49
0.0
 74
0
 49
-3.1749999999999998
 74
0
  0
LTYPE
  5
3C
100
AcDbSymbolTableRecord
100
AcDbLinetypeTableRecord
  2
DIVIDEX2
 70
0
  3
Divide (2x) ________  .  .  ________  .  .  _
 72
65
 73
6
 40
63.5
 49
25.3999999999999986
 74
0
 49
-12.6999999999999993
 74
0
 49
0.0
 74
0
 49
-12.6999999999999993
 74
0
 49
0.0
 74
0
 49
-12.6999999999999993
 74
0
  0
LTYPE
  5
3D
100
AcDbSymbolTableRecord
100
AcDbLinetypeTableRecord
  2
CENTER
 70
0
  3
Center ____ _ ____ _ ____ _ ____ _ ____ _ ____
 72
65
 73
4
 40
50.7999999999999972
 49
31.75
 74
0
 49
-6.3499999999999996
 74
0
 49
6.3499999999999996
 74
0
 49
-6.3499999999999996
 74
0
  0
LTYPE
  5
3E
100
AcDbSymbolTableRecord
100
AcDbLinetypeTableRecord
  2
CENTER2
 70
0
  3
Center (.5x) ___ _ ___ _ ___ _ ___ _ ___ _ ___
 72
65
 73
4
 40
28.5749999999999993
 49
19.0500000000000007
 74
0
 49
-3.1749999999999998
 74
0
 49
3.1749999999999998
 74
0
 49
-3.1749999999999998
 74
0
  0
LTYPE
  5
3F
100
AcDbSymbolTableRecord
100
AcDbLinetypeTableRecord
  2
CENTERX2
 70
0
  3
Center (2x) ________  __  ________  __  _____
 72
65
 73
4
 40
101.5999999999999943
 49
63.5
 74
0
 49
-12.6999999999999993
 74
0
 49
12.6999999999999993
 74
0
 49
-12.6999999999999993
 74
0
  0
LTYPE
  5
40
100
AcDbSymbolTableRecord
100
AcDbLinetypeTableRecord
  2
BORDER
 70
0
  3
Border __ __ . __ __ . __ __ . __ __ . __ __ .
 72
65
 73
6
 40
44.4500000000000028
 49
12.6999999999999993
 74
0
 49
-6.3499999999999996
 74
0
 49
12.6999999999999993
 74
0
 49
-6.3499999999999996
 74
0
 49
0.0
 74
0
 49
-6.3499999999999996
 74
0
  0
LTYPE
  5
41
100
AcDbSymbolTableRecord
100
AcDbLinetypeTableRecord
  2
BORDER2
 70
0
  3
Border (.5x) __.__.__.__.__.__.__.__.__.__.__.
 72
65
 73
6
 40
22.2250000000000014
 49
6.3499999999999996
 74
0
 49
-3.1749999999999998
 74
0
 49
6.3499999999999996
 74
0
 49
-3.1749999999999998
 74
0
 49
0.0
 74
0
 49
-3.1749999999999998
 74
0
  0
LTYPE
  5
42
100
AcDbSymbolTableRecord
100
AcDbLinetypeTableRecord
  2
BORDERX2
 70
0
  3
Border (2x) ____  ____  .  ____  ____  .  ___
 72
65
 73
6
 40
88.9000000000000057
 49
25.3999999999999986
 74
0
 49
-12.6999999999999993
 74
0
 49
25.3999999999999986
 74
0
 49
-12.6999999999999993
 74
0
 49
0.0
 74
0
 49
-12.6999999999999993
 74
0
  0
ENDTAB
  0
TABLE
  2
LAYER
  5
2
100
AcDbSymbolTable
 70
1
  0
LAYER
  5
10
100
AcDbSymbolTableRecord
100
AcDbLayerTableRecord
  2
0
 70
0
 62
7
  6
CONTINUOUS
370
0
390
F
  0
ENDTAB
  0
TABLE
  2
STYLE
  5
3
100
AcDbSymbolTable
 70
1
  0
STYLE
  5
11
100
AcDbSymbolTableRecord
100
AcDbTextStyleTableRecord
  2
Standard
 70
0
 40
0.0
 41
0.75
 50
0.0
 71
0
 42
2.5
  3
txt
  4

  0
ENDTAB
  0
TABLE
  2
VIEW
  5
6
100
AcDbSymbolTable
 70
0
  0
ENDTAB
  0
TABLE
  2
UCS
  5
7
100
AcDbSymbolTable
 70
0
  0
ENDTAB
  0
TABLE
  2
APPID
  5
9
100
AcDbSymbolTable
 70
1
  0
APPID
  5
12
100
AcDbSymbolTableRecord
100
AcDbRegAppTableRecord
  2
ACAD
 70
0
  0
ENDTAB
  0
TABLE
  2
DIMSTYLE
  5
A
100
AcDbSymbolTable
 70
1
100
AcDbDimStyleTable
 71
0
  0
DIMSTYLE
105
27
100
AcDbSymbolTableRecord
100
AcDbDimStyleTableRecord
  2
Standard
 41
2.5
 42
0.625
 43
3.75
 44
1.25
 70
0
 73
0
 74
0
 77
1
 78
8
140
2.5
141
2.5
143
0.03937007874016
147
0.625
171
3
172
1
271
2
272
2
274
3
278
44
283
0
284
8
340
11
  0
ENDTAB
  0
TABLE
  2
BLOCK_RECORD
  5
1
100
AcDbSymbolTable
 70
1
  0
BLOCK_RECORD
  5
1F
100
AcDbSymbolTableRecord
100
AcDbBlockTableRecord
  2
*Model_Space
340
22
  0
BLOCK_RECORD
  5
1B
100
AcDbSymbolTableRecord
100
AcDbBlockTableRecord
  2
*Paper_Space
340
1E
  0
BLOCK_RECORD
  5
23
100
AcDbSymbolTableRecord
100
AcDbBlockTableRecord
  2
*Paper_Space0
340
26
  0
ENDTAB
  0
ENDSEC
  0
SECTION
  2
BLOCKS
  0
BLOCK
  5
20
100
AcDbEntity
  8
0
100
AcDbBlockBegin
  2
*Model_Space
 70
0
 10
0.0
 20
0.0
 30
0.0
  3
*Model_Space
  1

  0
ENDBLK
  5
21
100
AcDbEntity
  8
0
100
AcDbBlockEnd
  0
BLOCK
  5
1C
100
AcDbEntity
 67
1
  8
0
100
AcDbBlockBegin
  2
*Paper_Space
 70
0
 10
0.0
 20
0.0
 30
0.0
  3
*Paper_Space
  1

  0
ENDBLK
  5
1D
100
AcDbEntity
 67
1
  8
0
100
AcDbBlockEnd
  0
BLOCK
  5
24
100
AcDbEntity
  8
0
100
AcDbBlockBegin
  2
*Paper_Space0
 70
0
 10
0.0
 20
0.0
 30
0.0
  3
*Paper_Space0
  1

  0
ENDBLK
  5
25
100
AcDbEntity
  8
0
100
AcDbBlockEnd
  0
ENDSEC
  0
SECTION
  2
ENTITIES
  0
POINT
  5
43
100
AcDbEntity
100
AcDbPoint
  8
0
 62
256
370
200
  6
ByLayer
 10
0.0
 20
0.0
 30
0.0
  0
POINT
  5
44
100
AcDbEntity
100
AcDbPoint
  8
0
 62
256
370
200
  6
ByLayer
 10
0.0655360000000001
 20
19.9229440000000153
 30
0.0
  0
POINT
  5
45
100
AcDbEntity
100
AcDbPoint
  8
0
 62
256
370
200
  6
ByLayer
 10
0.0
 20
39.963328512000075
 30
0.0
  0
POINT
  5
46
100
AcDbEntity
100
AcDbPoint
  8
0
 62
256
370
200
  6
ByLayer
 10
19.9753728000000521
 20
40.0031744000001055
 30
0.0
  0
POINT
  5
47
100
AcDbEntity
100
AcDbPoint
  8
0
 62
256
370
200
  6
ByLayer
 10
40.0136601600001285
 20
39.9717171200001218
 30
0.0
  0
POINT
  5
48
100
AcDbEntity
100
AcDbPoint
  8
0
 62
256
370
200
  6
ByLayer
 10
39.9968829440002267
 20
19.9984414720001134
 30
0.0
  0
POINT
  5
49
100
AcDbEntity
100
AcDbPoint
  8
0
 62
256
370
200
  6
ByLayer
 10
39.9769600000002825
 20
0.0655360000000005
 30
0.0
  0
POINT
  5
4A
100
AcDbEntity
100
AcDbPoint
  8
0
 62
256
370
200
  6
ByLayer
 10
19.975372800000148
 20
-0.1048576000000008
 30
0.0
  0
POINT
  5
4B
100
AcDbEntity
100
AcDbPoint
  8
0
 62
256
370
200
  6
ByLayer
 10
60.0064000000005038
 20
-0.1024000000000009
 30
0.0
  0
POINT
  5
4C
100
AcDbEntity
100
AcDbPoint
  8
0
 62
256
370
200
  6
ByLayer
 10
59.9261184000005471
 20
19.9229440000001823
 30
0.0
  0
POINT
  5
4D
100
AcDbEntity
100
AcDbPoint
  8
0
 62
256
370
200
  6
ByLayer
 10
80.0063488000007368
 20
19.9229440000001823
 30
0.0
  0
POINT
  5
4E
100
AcDbEntity
100
AcDbPoint
  8
0
 62
256
370
200
  6
ByLayer
 10
60.0288788480005948
 20
39.9968829440003972
 30
0.0
  0
POINT
  5
4F
100
AcDbEntity
100
AcDbPoint
  8
0
 62
256
370
200
  6
ByLayer
 10
80.0273203200008538
 20
40.0136601600004269
 30
0.0
  0
POINT
  5
50
100
AcDbEntity
100
AcDbPoint
  8
0
 62
256
370
200
  6
ByLayer
 10
79.9434342400009825
 20
0.0419430400000005
 30
0.0
  0
POINT
  5
51
100
AcDbEntity
100
AcDbPoint
  8
0
 62
256
370
200
  6
ByLayer
 10
100.0341504000013373
 20
19.9229440000002676
 30
0.0
  0
POINT
  5
52
100
AcDbEntity
100
AcDbPoint
  8
0
 62
256
370
200
  6
ByLayer
 10
100.0341504000013799
 20
40.0556032000005544
 30
0.0
  0
POINT
  5
53
100
AcDbEntity
100
AcDbPoint
  8
0
 62
256
370
200
  6
ByLayer
 10
120.012800000001846
 20
0.0
 30
0.0
  0
POINT
  5
54
100
AcDbEntity
100
AcDbPoint
  8
0
 62
256
370
200
  6
ByLayer
 10
120.012800000001846
 20
19.906560000000308
 30
0.0
  0
POINT
  5
55
100
AcDbEntity
100
AcDbPoint
  8
0
 62
256
370
200
  6
ByLayer
 10
139.9193600000021718
 20
19.9884800000003082
 30
0.0
  0
POINT
  5
56
100
AcDbEntity
100
AcDbPoint
  8
0
 62
256
370
200
  6
ByLayer
 10
140.0832000000021651
 20
0.0
 30
0.0
  0
POINT
  5
57
100
AcDbEntity
100
AcDbPoint
  8
0
 62
256
370
200
  6
ByLayer
 10
120.0128000000019171
 20
39.8950400000006411
 30
0.0
  0
POINT
  5
58
100
AcDbEntity
100
AcDbPoint
  8
0
 62
256
370
200
  6
ByLayer
 10
140.0012800000022537
 20
39.9769600000006378
 30
0.0
  0
POINT
  5
59
100
AcDbEntity
100
AcDbPoint
  8
0
 62
256
370
200
  6
ByLayer
 10
160.0716800000027149
 20
39.8950400000006766
 30
0.0
  0
POINT
  5
5A
100
AcDbEntity
100
AcDbPoint
  8
0
 62
256
370
200
  6
ByLayer
 10
160.0716800000028286
 20
19.9884800000003509
 30
0.0
  0
POINT
  5
5B
100
AcDbEntity
100
AcDbPoint
  8
0
 62
256
370
200
  6
ByLayer
 10
160.0716800000029707
 20
-0.0819200000000015
 30
0.0
  0
POINT
  5
5C
100
AcDbEntity
100
AcDbPoint
  8
0
 62
256
370
200
  6
ByLayer
 10
99.992207360002979
 20
0.0419430400000012
 30
0.0
  0
POINT
  5
5D
100
AcDbEntity
100
AcDbPoint
  8
0
 62
256
370
200
  6
ByLayer
 10
19.9229440000006761
 20
19.9229440000006761
 30
0.0
  0
LINE
  5
5E
100
AcDbEntity
100
AcDbLine
  8
0
 62
256
370
18
  6
ByLayer
 10
0.0
 20
0.0
 30
0.0
 11
-0.0524288000000023
 21
39.950745600001774
 31
0.0
  0
LINE
  5
5F
100
AcDbEntity
100
AcDbLine
  8
0
 62
256
370
18
  6
ByLayer
 10
-0.0524288000000023
 20
39.950745600001774
 30
0.0
 11
39.9633285120017803
 21
39.9633285120017803
 31
0.0
  0
LINE
  5
60
100
AcDbEntity
100
AcDbLine
  8
0
 62
256
370
18
  6
ByLayer
 10
39.9633285120017803
 20
39.9633285120017803
 30
0.0
 11
39.9769600000018386
 21
0.0
 31
0.0
  0
LINE
  5
61
100
AcDbEntity
100
AcDbLine
  8
0
 62
256
370
18
  6
ByLayer
 10
39.9769600000018386
 20
0.0
 30
0.0
 11
-0.1006632960000047
 21
0.0
 31
0.0
  0
LINE
  5
62
100
AcDbEntity
100
AcDbLine
  8
0
 62
256
370
18
  6
ByLayer
 10
60.0221679616029391
 20
-0.0268435456000013
 30
0.0
 11
59.9785472000030708
 21
40.0556032000020537
 31
0.0
  0
LINE
  5
63
100
AcDbEntity
100
AcDbLine
  8
0
 62
256
370
18
  6
ByLayer
 10
59.9785472000030708
 20
40.0556032000020537
 30
0.0
 11
99.9502643200054024
 21
40.0136601600021677
 31
0.0
  0
LINE
  5
64
100
AcDbEntity
100
AcDbLine
  8
0
 62
256
370
18
  6
ByLayer
 10
99.9502643200054024
 20
40.0136601600021677
 30
0.0
 11
99.9922073600055228
 21
19.9984414720011046
 31
0.0
  0
LINE
  5
65
100
AcDbEntity
100
AcDbLine
  8
0
 62
256
370
18
  6
ByLayer
 10
99.9922073600055228
 20
19.9984414720011046
 30
0.0
 11
79.9539200000046435
 21
19.9065600000011571
 31
0.0
  0
LINE
  5
66
100
AcDbEntity
100
AcDbLine
  8
0
 62
256
370
18
  6
ByLayer
 10
79.9539200000046435
 20
19.9065600000011571
 30
0.0
 11
79.9539200000047288
 21
-0.0655360000000039
 31
0.0
  0
LINE
  5
67
100
AcDbEntity
100
AcDbLine
  8
0
 62
256
370
18
  6
ByLayer
 10
79.9539200000047288
 20
-0.0655360000000039
 30
0.0
 11
60.0204902400035962
 21
-0.083886080000005
 31
0.0
  0
LINE
  5
68
100
AcDbEntity
100
AcDbLine
  8
0
 62
256
370
18
  6
ByLayer
 10
120.0409804800075619
 20
-0.0419430400000026
 30
0.0
 11
120.0577576960077977
 21
19.9984414720013
 31
0.0
  0
LINE
  5
69
100
AcDbEntity
100
AcDbLine
  8
0
 62
256
370
18
  6
ByLayer
 10
120.0577576960077977
 20
19.9984414720013
 30
0.0
 11
140.08975360000926
 21
20.0068300800013219
 31
0.0
  0
LINE
  5
6A
100
AcDbEntity
100
AcDbLine
  8
0
 62
256
370
18
  6
ByLayer
 10
140.08975360000926
 20
20.0068300800013219
 30
0.0
 11
139.8800384000092265
 21
20.0068300800013219
 31
0.0
  0
LINE
  5
6B
100
AcDbEntity
100
AcDbLine
  8
0
 62
256
370
18
  6
ByLayer
 10
139.8800384000092265
 20
20.0068300800013219
 30
0.0
 11
139.8884270080093302
 21
-0.1342177280000089
 31
0.0
  0
LINE
  5
6C
100
AcDbEntity
100
AcDbLine
  8
0
 62
256
370
18
  6
ByLayer
 10
139.8884270080093302
 20
-0.1342177280000089
 30
0.0
 11
119.9570944000079891
 21
-0.1342177280000089
 31
0.0
  0
LINE
  5
6D
100
AcDbEntity
100
AcDbLine
  8
0
 62
256
370
18
  6
ByLayer
 10
160.0304814489710452
 20
19.9801878609933787
 30
0.0
 11
160.0412188672114269
 21
39.9700393984028537
 31
0.0
  0
LINE
  5
6E
100
AcDbEntity
100
AcDbLine
  8
0
 62
256
370
18
  6
ByLayer
 10
160.0412188672114269
 20
39.9700393984028537
 30
0.0
 11
180.0235542118530248
 21
39.9646706892828902
 31
0.0
  0
LINE
  5
6F
100
AcDbEntity
100
AcDbLine
  8
0
 62
256
370
18
  6
ByLayer
 10
180.0235542118530248
 20
39.9646706892828902
 30
0.0
 11
179.9859732480133516
 21
19.9447543808014807
 31
0.0
  0
LINE
  5
70
100
AcDbEntity
100
AcDbLine
  8
0
 62
256
370
18
  6
ByLayer
 10
179.9859732480133516
 20
19.9447543808014807
 30
0.0
 11
160.0143753216120217
 21
19.9447543808014984
 31
0.0
  0
POINT
  5
71
100
AcDbEntity
100
AcDbPoint
  8
0
 62
256
370
200
  6
ByLayer
 10
180.0020793753740236
 20
39.9646706892831176
 30
0.0
  0
POINT
  5
72
100
AcDbEntity
100
AcDbPoint
  8
0
 62
256
370
200
  6
ByLayer
 10
179.9356416000142644
 20
19.9229440000015821
 30
0.0
  0
POINT
  5
73
100
AcDbEntity
100
AcDbPoint
  8
0
 62
256
370
200
  6
ByLayer
 10
180.0614707200144835
 20
0.0419430400000034
 30
0.0
  0
MTEXT
  5
74
100
AcDbEntity
100
AcDbMText
  8
0
 62
256
370
-1
  6
ByLayer
 10
150.2390833640012033
 20
49.6464791047131939
 30
0.0
 40
2.5
 41
100.0
 71
5
 72
0
  1
DEGENERAZIONE: N(N-5)/2
  7
iso
 50
0.0
 73
1
 44
1.0
  0
MTEXT
  5
75
100
AcDbEntity
100
AcDbMText
  8
0
 62
256
370
-1
  6
ByLayer
 10
80.0581966714746756
 20
49.3865498947408739
 30
0.0
 40
2.5
 41
100.0
 71
5
 72
0
  1
DEGENERAZIONE: 4N
  7
iso
 50
0.0
 73
1
 44
1.0
  0
MTEXT
  5
76
100
AcDbEntity
100
AcDbMText
  8
0
 62
256
370
-1
  6
ByLayer
 10
20.2744783778409925
 20
49.3865498947408739
 30
0.0
 40
2.5
 41
100.0
 71
5
 72
0
  1
DEGENERAZIONE: N
  7
iso
 50
0.0
 73
1
 44
1.0
  0
LINE
  5
77
100
AcDbEntity
100
AcDbLine
  8
0
 62
256
370
40
  6
ByLayer
 10
50.1459590745960213
 20
50.0394920701913577
 30
0.0
 11
50.2524260790007347
 21
0.0
 31
0.0
  0
LINE
  5
78
100
AcDbEntity
100
AcDbLine
  8
0
 62
256
370
40
  6
ByLayer
 10
110.0252168654700426
 20
-0.0436088850041498
 30
0.0
 11
110.0252168654702274
 21
50.1066088697682446
 31
0.0
  0
ENDSEC
  0
SECTION
  2
OBJECTS
  0
DICTIONARY
  5
C
100
AcDbDictionary
280
0
281
1
  3
ACAD_GROUP
350
D
  3
ACAD_LAYOUT
350
1A
  3
ACAD_MLINESTYLE
350
17
  3
ACAD_PLOTSETTINGS
350
19
  3
ACAD_PLOTSTYLENAME
350
E
  3
AcDbVariableDictionary
350
79
  0
DICTIONARY
  5
D
100
AcDbDictionary
280
0
281
1
  0
ACDBDICTIONARYWDFLT
  5
E
100
AcDbDictionary
281
1
  3
Normal
350
F
100
AcDbDictionaryWithDefault
340
F
  0
ACDBPLACEHOLDER
  5
F
  0
DICTIONARY
  5
17
100
AcDbDictionary
280
0
281
1
  3
Standard
350
18
  0
MLINESTYLE
  5
18
100
AcDbMlineStyle
  2
STANDARD
 70
0
  3

 62
256
 51
90.0
 52
90.0
 71
2
 49
0.5
 62
256
  6
BYLAYER
 49
-0.5
 62
256
  6
BYLAYER
  0
DICTIONARY
  5
19
100
AcDbDictionary
280
0
281
1
  0
DICTIONARY
  5
1A
100
AcDbDictionary
281
1
  3
Layout1
350
1E
  3
Layout2
350
26
  3
Model
350
22
  0
LAYOUT
  5
1E
100
AcDbPlotSettings
  1

  2
C:\Program Files\AutoCAD 2002\plotters\DWF ePlot (optimized for plotting).pc3
  4

  6

 40
0.0
 41
0.0
 42
0.0
 43
0.0
 44
0.0
 45
0.0
 46
0.0
 47
0.0
 48
0.0
 49
0.0
140
0.0
141
0.0
142
1.0
143
1.0
 70
688
 72
0
 73
0
 74
5
  7

 75
16
147
1.0
148
0.0
149
0.0
100
AcDbLayout
  1
Layout1
 70
1
 71
1
 10
0.0
 20
0.0
 11
420.0
 21
297.0
 12
0.0
 22
0.0
 32
0.0
 14
100000000000000000000.0
 24
100000000000000000000.0
 34
100000000000000000000.0
 15
-100000000000000000000.0
 25
-100000000000000000000.0
 35
-100000000000000000000.0
146
0.0
 13
0.0
 23
0.0
 33
0.0
 16
1.0
 26
0.0
 36
0.0
 17
0.0
 27
1.0
 37
0.0
 76
0
330
1B
  0
LAYOUT
  5
22
100
AcDbPlotSettings
  1

  2
C:\Program Files\AutoCAD 2002\plotters\DWF ePlot (optimized for plotting).pc3
  4

  6

 40
0.0
 41
0.0
 42
0.0
 43
0.0
 44
0.0
 45
0.0
 46
0.0
 47
0.0
 48
0.0
 49
0.0
140
0.0
141
0.0
142
1.0
143
1.0
 70
1712
 72
0
 73
0
 74
0
  7

 75
0
147
1.0
148
0.0
149
0.0
100
AcDbLayout
  1
Model
 70
1
 71
0
 10
0.0
 20
0.0
 11
12.0
 21
9.0
 12
0.0
 22
0.0
 32
0.0
 14
0.0
 24
0.0
 34
0.0
 15
0.0
 25
0.0
 35
0.0
146
0.0
 13
0.0
 23
0.0
 33
0.0
 16
1.0
 26
0.0
 36
0.0
 17
0.0
 27
1.0
 37
0.0
 76
0
330
1F
  0
LAYOUT
  5
26
100
AcDbPlotSettings
  1

  2
C:\Program Files\AutoCAD 2002\plotters\DWF ePlot (optimized for plotting).pc3
  4

  6

 40
0.0
 41
0.0
 42
0.0
 43
0.0
 44
0.0
 45
0.0
 46
0.0
 47
0.0
 48
0.0
 49
0.0
140
0.0
141
0.0
142
1.0
143
1.0
 70
688
 72
0
 73
0
 74
5
  7

 75
16
147
1.0
148
0.0
149
0.0
100
AcDbLayout
  1
Layout2
 70
1
 71
2
 10
0.0
 20
0.0
 11
12.0
 21
9.0
 12
0.0
 22
0.0
 32
0.0
 14
0.0
 24
0.0
 34
0.0
 15
0.0
 25
0.0
 35
0.0
146
0.0
 13
0.0
 23
0.0
 33
0.0
 16
1.0
 26
0.0
 36
0.0
 17
0.0
 27
1.0
 37
0.0
 76
0
330
23
  0
DICTIONARY
  5
79
100
AcDbDictionary
281
1
  3
DIMASSOC
350
7B
  3
HIDETEXT
350
7A
  0
DICTIONARYVAR
  5
7A
100
DictionaryVariables
280
0
  1
2
  0
DICTIONARYVAR
  5
7B
100
DictionaryVariables
280
0
  1
1
  0
ENDSEC
  0
EOF
